<svg xmlns="http://www.w3.org/2000/svg" viewBox="0 0 299.28 345.58"><defs><style>.cls-1{fill:#0a1028;}.cls-2{fill:#fff;}.cls-3{fill:#e7d467;}.cls-4{fill:#baa854;}</style></defs><title>aboutProfile_1</title><g id="Layer_2" data-name="Layer 2"><g id="Layer_1-2" data-name="Layer 1"><polygon class="cls-1" points="149.64 0 299.28 86.39 299.28 259.18 149.64 345.58 0 259.18 0 86.39 149.64 0"/><polygon class="cls-2" points="149.64 19.54 282.35 96.17 282.35 249.41 149.64 326.03 16.93 249.41 16.93 96.17 149.64 19.54"/><polygon class="cls-3" points="149.64 30.91 272.51 101.85 272.51 243.73 149.64 314.67 26.77 243.73 26.77 101.85 149.64 30.91"/><circle class="cls-4" cx="149.64" cy="124.28" r="54.89"/><path class="cls-4" d="M149.64,182.52c-48.13,0-87.15,32.08-87.15,71.65h174.3C236.79,214.6,197.77,182.52,149.64,182.52Z"/></g></g></svg>