<svg id="Layer_1" data-name="Layer 1" xmlns="http://www.w3.org/2000/svg" viewBox="0 0 114.05 130.88"><defs><style>.cls-1{fill:#0a1028;}.cls-2,.cls-5{fill:#fff;}.cls-3{fill:#fbdb2c;}.cls-4{fill:#d5b025;}.cls-5{font-size:11.25px;font-family:Segoe UI;font-weight:700;}</style></defs><title>clash</title><polygon class="cls-1" points="0.7 32.12 57.72 0 114.05 33.33 113.35 98.77 56.33 130.88 0 97.56 0.7 32.12"/><polygon class="cls-2" points="6.63 35.75 57.44 7.13 107.62 36.83 107 95.13 56.19 123.75 6.01 94.06 6.63 35.75"/><polygon class="cls-3" points="104.98 38.31 104.39 93.59 56.22 120.72 8.65 92.57 9.24 37.29 57.4 10.16 104.98 38.31"/><polygon class="cls-4" points="57.4 10.16 56.22 120.72 104.39 93.59 104.98 38.31 57.4 10.16"/><polygon class="cls-2" points="14.22 40.24 57.34 15.96 99.93 41.16 99.4 90.64 56.28 114.92 13.7 89.72 14.22 40.24"/><polygon class="cls-3" points="97.38 42.59 96.89 89.15 56.32 112 16.24 88.29 16.74 41.73 57.31 18.88 97.38 42.59"/><polygon class="cls-4" points="57.31 18.88 56.32 112 96.89 89.15 97.38 42.59 57.31 18.88"/><rect class="cls-2" x="14.7" y="70.19" width="83" height="20"/><polygon class="cls-1" points="97.12 72.3 16.48 72.29 16.41 79.5 16.33 87.69 97 88.04 97.12 72.3"/><text class="cls-5" transform="translate(24.66 83.84)">Clash <tspan x="30.28" y="0">R</tspan><tspan x="36.98" y="0">oyale</tspan></text><polygon class="cls-2" points="41.11 33.19 50.38 33.19 57.45 26.13 64.65 33.19 73.8 33.19 73.93 59.56 57.45 67.79 41.15 59.57 41.11 33.19"/><polygon class="cls-1" points="43.85 35.19 51.58 35.19 57.46 29.36 63.46 35.19 71.07 35.19 71.18 57.31 57.46 64.28 43.89 57.23 43.85 35.19"/><polygon class="cls-2" points="47.89 40.44 48.9 54.19 66.11 54.19 67.09 40.57 64.22 40.4 63.24 43.7 62.33 43.74 60.31 39.22 54.58 39.34 52.75 43.67 51.83 43.73 50.79 40.37 47.89 40.44"/><polygon class="cls-1" points="46.46 45.5 46.6 46.6 68.05 46.54 68.19 45.56 46.46 45.5"/><polygon class="cls-1" points="57.63 47.52 55.19 49.9 57.38 52.15 59.89 49.9 57.63 47.52"/></svg>