<svg id="Layer_1" data-name="Layer 1" xmlns="http://www.w3.org/2000/svg" viewBox="0 0 114.05 130.88"><defs><style>.cls-1,.cls-6{fill:#0a1028;}.cls-2,.cls-5,.cls-7{fill:#fff;}.cls-3{fill:#fbdb2c;}.cls-4{fill:#d5b025;}.cls-5{font-size:11.25px;font-family:Segoe UI;font-weight:700;}.cls-6{stroke:#fff;stroke-miterlimit:10;stroke-width:2px;}.cls-7{fill-rule:evenodd;}</style></defs><title>csgo</title><polygon class="cls-1" points="0.7 32.12 57.72 0 114.05 33.33 113.35 98.77 56.33 130.88 0 97.56 0.7 32.12"/><polygon class="cls-2" points="6.63 35.75 57.44 7.13 107.62 36.83 107 95.13 56.19 123.75 6.01 94.06 6.63 35.75"/><polygon class="cls-3" points="104.98 38.31 104.39 93.59 56.22 120.72 8.65 92.57 9.24 37.29 57.4 10.16 104.98 38.31"/><polygon class="cls-4" points="57.4 10.16 56.22 120.72 104.39 93.59 104.98 38.31 57.4 10.16"/><polygon class="cls-2" points="14.22 40.24 57.34 15.96 99.93 41.16 99.4 90.64 56.28 114.92 13.7 89.72 14.22 40.24"/><polygon class="cls-3" points="97.38 42.59 96.89 89.15 56.32 112 16.24 88.29 16.74 41.73 57.31 18.88 97.38 42.59"/><polygon class="cls-4" points="57.31 18.88 56.32 112 96.89 89.15 97.38 42.59 57.31 18.88"/><rect class="cls-2" x="14.97" y="70.63" width="83" height="20"/><polygon class="cls-1" points="97.12 72.3 16.48 72.29 16.41 79.5 16.33 87.69 97 88.04 97.12 72.3"/><text class="cls-5" transform="translate(42.03 83.41)">CSGO</text><circle class="cls-6" cx="56.97" cy="47.32" r="19.38"/><path class="cls-7" d="M-1582-238.54a23.19,23.19,0,0,1-2.72-.19c-0.34-.08-0.89,0-0.9-0.4a5,5,0,0,1,1.09-.47,3.24,3.24,0,0,0,.73-0.19,5.34,5.34,0,0,1-1.42-.17,0.86,0.86,0,0,1-.52-0.19v-0.19a4.32,4.32,0,0,1,.61-0.35,0.81,0.81,0,0,0,.4-0.17,2.12,2.12,0,0,1-.54-0.33c-0.41-.26-0.78-0.5-1.16-0.78a2.91,2.91,0,0,1-.31-0.38,0.92,0.92,0,0,1,0-.21,3.84,3.84,0,0,1,1.13,0v0a1.81,1.81,0,0,1-.38-0.45,1.72,1.72,0,0,1-.59-1.09,0.69,0.69,0,0,1,.4-0.07,1.8,1.8,0,0,0,.33.09l0.47,0.21v0a2,2,0,0,1-.33-0.54,2.56,2.56,0,0,1-.61-1.54,1.07,1.07,0,0,1,.31,0,3.86,3.86,0,0,0,.45.24,3.89,3.89,0,0,0,.69.5v0a2,2,0,0,1-.17-0.5,3.23,3.23,0,0,1-.31-1.73,0.68,0.68,0,0,1,.21,0,2.65,2.65,0,0,0,.26.17,2.7,2.7,0,0,1,.45.47,3.16,3.16,0,0,0,.54.69,18.81,18.81,0,0,1-.47-2.1,1.09,1.09,0,0,1,.12-0.92,0.31,0.31,0,0,1,.17,0,2.18,2.18,0,0,1,.71.71h0a9.31,9.31,0,0,1-.17-1.87,0.92,0.92,0,0,1,.14-0.73,0.16,0.16,0,0,1,.17,0,2.16,2.16,0,0,1,.71,1h0v-1.13a2,2,0,0,0,0-.4c0.08-.37,0-1,0.45-1a1.26,1.26,0,0,1,.35.47h0v-0.5a1.72,1.72,0,0,0,0-.35,0.92,0.92,0,0,1,.31-0.73,0.42,0.42,0,0,1,.4.12,1.77,1.77,0,0,1,.35-1.16,0.31,0.31,0,0,1,.28,0,1.43,1.43,0,0,1,1.25-1.51,0.41,0.41,0,0,1,.07.28,3.09,3.09,0,0,0-.35.78c-0.29.65-.58,1.29-0.87,2-0.72,1.64-1.35,3.41-1.94,5.18-0.2.61-.35,1.22-0.54,1.82l-0.19,1-0.07.83v0.43a2.77,2.77,0,0,0,0,1l0,0.5a3.2,3.2,0,0,0,.52,1.54,1,1,0,0,0,1.13.31,0.66,0.66,0,0,0,.24-0.07,2.2,2.2,0,0,0,.17-0.66,4.84,4.84,0,0,0,.12-1.94h0v0a1.35,1.35,0,0,1,1.49.38,0.51,0.51,0,0,1,.19.26,4.23,4.23,0,0,0-.73.92c-0.52.73-1.05,1.44-1.56,2.2l-0.54.8A1.05,1.05,0,0,0-1582-238.54Z" transform="translate(1632.97 290.63)"/><path class="cls-7" d="M-1580.21-254.8a0.58,0.58,0,0,0-.33-0.07,3.59,3.59,0,0,0-.21.45l-0.12.73h-0.07a0.46,0.46,0,0,0-.31-0.17,2.57,2.57,0,0,0-.33,1.7h-0.07a0.73,0.73,0,0,0-.5-0.57,6.15,6.15,0,0,0-.28,2.65h-0.07a2,2,0,0,0-.85-1.11c-0.35.74,0,1.85,0,2.67h-0.07a1.68,1.68,0,0,0-.83-0.76l0,0a1.72,1.72,0,0,0,0,1c0.09,0.38.09,0.7,0.19,1.06a5.1,5.1,0,0,1,.26,1h-0.07a5.76,5.76,0,0,0-.92-1.11,0.69,0.69,0,0,0-.47-0.31l0,0a1.08,1.08,0,0,0,0,.71l0.31,1a2.42,2.42,0,0,1,.19.57h-0.09a3.8,3.8,0,0,0-.92-0.69,0.68,0.68,0,0,0-.4-0.12c-0.07,0,0,0-.07.07a0.83,0.83,0,0,0,.17.59c0.17,0.33.31,0.64,0.5,0.95a1.7,1.7,0,0,1,.33.57,0.74,0.74,0,0,1-.31-0.12,2.09,2.09,0,0,0-.87-0.21,0.29,0.29,0,0,0-.07.21,3.33,3.33,0,0,1,.21.4c0.11,0.17.25,0.33,0.38,0.5a1.65,1.65,0,0,1,.43.52,1.94,1.94,0,0,0-1.18.07,0.16,0.16,0,0,0,0,.09c0.12,0.11.2,0.28,0.33,0.38,0.36,0.27.73,0.54,1.11,0.78a1.68,1.68,0,0,1,.64.43,1.62,1.62,0,0,0-1.09.59,4.78,4.78,0,0,0,1.37.33c0.23,0,.48,0,0.69,0v0.07a5.27,5.27,0,0,0-1.56.45,0.46,0.46,0,0,0-.38.28,9.87,9.87,0,0,0,3.52.4,9.9,9.9,0,0,1,.9-1.32c0.7-1,1.37-2,2.1-2.91a0.7,0.7,0,0,1,.14-0.07,2.31,2.31,0,0,0,.28-0.38c0.27-.36.62-0.67,0.9-1a2.73,2.73,0,0,0,.59-0.71,2.18,2.18,0,0,1-.38-0.69,4.38,4.38,0,0,1-.45-2.36,4.57,4.57,0,0,1,0-.85v-0.47a5.79,5.79,0,0,1,.07-1.06c0.17-.77-0.19-1.89.66-2v0h0a4.93,4.93,0,0,0,.35,1.13c0.23,0.69.38,1.36,0.61,2.06a5.21,5.21,0,0,1,.35,1.13,0.92,0.92,0,0,0-.52.5c-0.16.6,0.7,0.89,1.21,0.66a0.61,0.61,0,0,0,.24-0.85,1.21,1.21,0,0,1-.43-0.4,5.74,5.74,0,0,0,.35-1.13c0.24-.73.49-1.51,0.73-2.25a3.3,3.3,0,0,1,.26-0.85l0.07,0a1.2,1.2,0,0,1,.38.21,4,4,0,0,1,.17,1.23c0,0.19,0,.47.07,0.66v0.4a9.07,9.07,0,0,1,.07,1.68l0,1.47a7,7,0,0,1-.54,1.37,1.79,1.79,0,0,0-.26.47,2.08,2.08,0,0,1,.4.47c0.23,0.3.52,0.56,0.76,0.87s0.32,0.3.45,0.47a1.43,1.43,0,0,0,.17.24,1.4,1.4,0,0,1,.26.21c0.58,0.77,1.17,1.55,1.73,2.34,0.29,0.42.57,0.84,0.85,1.25a3.09,3.09,0,0,0,.31.5h0.54a2.38,2.38,0,0,1,.52,0c0.12,0,.34,0,0.5,0,0.45-.1,1-0.06,1.39-0.17a0.75,0.75,0,0,0,.54-0.21s0,0,0,0a0.71,0.71,0,0,0-.47-0.28,5,5,0,0,0-1.44-.4,0.11,0.11,0,0,1,0-.07,1.8,1.8,0,0,1,.38,0c0.41-.09,1.61-0.07,1.65-0.45a2.77,2.77,0,0,0-1.09-.5v-0.07a2.79,2.79,0,0,0,.61-0.38c0.41-.26.78-0.5,1.16-0.78a3.83,3.83,0,0,0,.31-0.35l0-.14a4.49,4.49,0,0,0-1.18,0v-0.07a1.25,1.25,0,0,0,.28-0.33,2.4,2.4,0,0,0,.73-1.16,0.51,0.51,0,0,0-.33-0.07,5.23,5.23,0,0,1-.92.33,1.59,1.59,0,0,1,.33-0.57c0.19-.31.32-0.63,0.5-1a0.61,0.61,0,0,0,.09-0.66,2.78,2.78,0,0,0-1,.57,0.81,0.81,0,0,1-.38.26,1.79,1.79,0,0,1,.17-0.52,4.12,4.12,0,0,0,.35-1.82l-0.14,0a1.52,1.52,0,0,1-.21.14,5.48,5.48,0,0,0-.78.87,0.82,0.82,0,0,1-.35.4,4.58,4.58,0,0,1,.26-1.06l0.24-1.25a0.71,0.71,0,0,0-.19-0.83,2.47,2.47,0,0,0-.76.76H-1568a12.49,12.49,0,0,0,.09-2.6,0.25,0.25,0,0,0-.17-0.07c-0.06.08-.16,0.12-0.21,0.19s-0.25.37-.35,0.54a0.58,0.58,0,0,1-.24.35,8.73,8.73,0,0,0-.09-2c-0.06-.25,0-0.57-0.31-0.59a6.79,6.79,0,0,1-.45.57c0-.54,0-1.64-0.4-1.7a0.69,0.69,0,0,1-.33.17,1.8,1.8,0,0,0-.35-1.18,0.33,0.33,0,0,0-.28.07V-255c0.06,0,.05,0,0-0.17a1.71,1.71,0,0,0,0-.4,1.57,1.57,0,0,1,.33-1,0.16,0.16,0,0,1,.09,0c0,0.07.12,0.12,0.17,0.19a5.91,5.91,0,0,1,.5,1.58h0a0.62,0.62,0,0,1,.38-0.64,4.32,4.32,0,0,1,.35,1.16,2.54,2.54,0,0,0,.12.76v0a1.18,1.18,0,0,1,.69-0.73,1.38,1.38,0,0,1,.19.14,6,6,0,0,1,.45,2.34h0v0a2.27,2.27,0,0,0,.24-0.54,2,2,0,0,1,.43-0.54l0.14,0a6.28,6.28,0,0,1,.33,2.69h0a1.23,1.23,0,0,1,.31-0.26,1.55,1.55,0,0,1,1.23-.59,1.25,1.25,0,0,1,0,.95c-0.1.34-.14,0.65-0.26,1a8.25,8.25,0,0,0-.31.83h0a2.81,2.81,0,0,1,1.8-.66l0.12,0.17a3.48,3.48,0,0,1-.52,1.65,2.17,2.17,0,0,0-.26.47h0.07a1.21,1.21,0,0,1,.83,0,0.59,0.59,0,0,0,.09.12,3.11,3.11,0,0,1-.76,1.75,1.58,1.58,0,0,0-.24.33h0.73l0.43,0.12a0.53,0.53,0,0,1,.17.43c-0.07.1-.08,0.23-0.14,0.33s-0.16.22-.24,0.33l-0.61.64h0.54c0.19,0.11.39,0,.4,0.33-0.09.11-.13,0.25-0.21,0.35a4.43,4.43,0,0,1-.83.71,3.79,3.79,0,0,0-.78.54c0.43,0,1.24.24,1.23,0.71a2.56,2.56,0,0,1-.19.24,3.11,3.11,0,0,1-1,.52l0,0c0.24,0.17.62,0.11,0.61,0.52h0a1.91,1.91,0,0,1-1,.61c-0.19.12-.37,0.3-0.57,0.43a8.14,8.14,0,0,1-1.87.78,3,3,0,0,1-.76.19,2.16,2.16,0,0,0,.14.57l0.07,0.43c0.07,0.26.09,0.55,0.17,0.85a7.55,7.55,0,0,1,.17,2.72,2.64,2.64,0,0,1-.09.73,1,1,0,0,1-.85.43c0-.42,0-0.81,0-1.25v-0.4L-1569-234a20.39,20.39,0,0,0-.59-2.36,9,9,0,0,0-.35-1c-0.2-.38-0.48-0.75-0.71-1.11-0.73-1.15-1.48-2.21-2.27-3.28-0.42-.57-0.92-1.07-1.35-1.63-0.17-.22-0.41-0.4-0.57-0.64h0v0a4.34,4.34,0,0,1-.8.9c-0.21-.33-0.53-0.58-0.73-0.92h0v0a5.11,5.11,0,0,0-.76.87c-0.17.23-.42,0.43-0.59,0.66-0.34.45-.68,0.89-1,1.35s-0.63.8-.92,1.21-0.64,1-1,1.54a9.24,9.24,0,0,0-.71,1.18,17.17,17.17,0,0,0-.78,2.6c-0.14.55-.09,1.13-0.21,1.7v0.47c0,0.51,0,1,0,1.44a1,1,0,0,1-.85-0.43,2.37,2.37,0,0,1-.09-0.69,5.68,5.68,0,0,1,.07-2.13c0.05-.23,0-0.46.09-0.66s0.09-.61.17-0.87l0.07-.4a2.26,2.26,0,0,0,.14-0.54,2.79,2.79,0,0,1-.85-0.21,7.33,7.33,0,0,1-1.54-.61c-0.28-.17-0.53-0.41-0.8-0.57l-0.35-.12a2.28,2.28,0,0,1-.71-0.5v-0.17a2.26,2.26,0,0,1,.64-0.35l0,0a4.93,4.93,0,0,0-.54-0.24,2.77,2.77,0,0,1-.64-0.52,1,1,0,0,1,.95-0.66,0.79,0.79,0,0,0,.28-0.07,6.47,6.47,0,0,1-1.47-1.11,0.77,0.77,0,0,1-.35-0.61,1.42,1.42,0,0,1,.95-0.19v0a2.15,2.15,0,0,1-1-1.56c0.06,0,.09-0.11.14-0.14a2.54,2.54,0,0,1,1.16-.12v0a1.65,1.65,0,0,1-.33-0.47,2.17,2.17,0,0,1-.64-1.61,1.24,1.24,0,0,1,1,0v0a2.27,2.27,0,0,1-.31-0.57,2.66,2.66,0,0,1-.45-1.58l0.14-.12a3.23,3.23,0,0,1,1.77.69v0a1.9,1.9,0,0,1-.17-0.45,11,11,0,0,1-.47-1.51,0.8,0.8,0,0,1,.12-0.73,0.52,0.52,0,0,1,.52.09,11.18,11.18,0,0,1,1,.76v-1a1.9,1.9,0,0,0,0-.4c0.08-.36.06-1.17,0.35-1.28a0.16,0.16,0,0,1,.09,0,2.65,2.65,0,0,1,.66,1.13h0v-0.28a2.87,2.87,0,0,0,.07-0.69,4.69,4.69,0,0,1,.33-1.3c0.33-.53.83,0.21,0.92,0.57h0A6.14,6.14,0,0,1-1582-255c0.06-.2.06-0.41,0.31-0.43a2.49,2.49,0,0,1,.19.31,1.62,1.62,0,0,0,.09.33A4.63,4.63,0,0,1-1581-256a0.71,0.71,0,0,1,.28-0.47,0.15,0.15,0,0,1,.14,0,3.92,3.92,0,0,1,.33,1.56C-1580.2-255-1580.21-254.92-1580.21-254.8Z" transform="translate(1632.97 290.63)"/><path class="cls-7" d="M-1569.25-238.54a4.34,4.34,0,0,0-.64-1c-0.57-.84-1.14-1.66-1.73-2.48a5,5,0,0,1-.71-0.92c0.1-.08.16-0.23,0.26-0.31a1.46,1.46,0,0,1,1.44-.24,5.63,5.63,0,0,0,.28,2.62,1.79,1.79,0,0,0,1.09,0c0.62-.36.62-1.08,0.8-1.89l0-.52a3.94,3.94,0,0,0,0-1.28c-0.07-.34,0-0.65-0.07-1s-0.06-.56-0.14-0.83c-0.56-1.84-1.14-3.7-1.84-5.41-0.2-.47-0.32-0.93-0.52-1.39l-0.9-2.06a3.21,3.21,0,0,1-.47-1.18,0.36,0.36,0,0,1,.26-0.07l0.35,0.14a1.59,1.59,0,0,1,.47.54,2.15,2.15,0,0,1,.19.5,1,1,0,0,0,.07.33,0.36,0.36,0,0,1,.31,0,3.27,3.27,0,0,1,.24.57,2.24,2.24,0,0,0,.09.59,0.34,0.34,0,0,1,.52,0,3.61,3.61,0,0,1,.19,1.49h0v0a1.18,1.18,0,0,0,.17-0.26l0.19-.17h0.19a3.86,3.86,0,0,1,.26,1.16v0.71a2.24,2.24,0,0,1,0,.71h0v0c0.3-.26.34-1,0.9-1,0.33,0.52.06,2,0,2.6h0a1.3,1.3,0,0,1,.87-0.69,1.53,1.53,0,0,1,.09,1.06,15.55,15.55,0,0,1-.45,2h0a5.17,5.17,0,0,1,1.16-1.3,0.62,0.62,0,0,1,.26,0l0,0.07a1.16,1.16,0,0,1,0,.59,12,12,0,0,1-.5,1.65h0a2.49,2.49,0,0,1,1.42-.76v0h0c0.1,0.78-.74,1.53-0.95,2.13h0a1.92,1.92,0,0,1,1.11-.31,0.36,0.36,0,0,1,.07.26c-0.13.17-.19,0.39-0.31,0.57s-0.47.52-.66,0.8h0.09a1.32,1.32,0,0,1,1,.07,0.31,0.31,0,0,1,0,.17,3.22,3.22,0,0,1-.31.38c-0.35.26-.71,0.49-1.09,0.73a2.57,2.57,0,0,1-.61.38v0a2.39,2.39,0,0,1,1,.47v0.19a4.44,4.44,0,0,1-1.18.31,2.85,2.85,0,0,0-.76.07,5.1,5.1,0,0,1,1.32.38,0.73,0.73,0,0,1,.47.28,0.19,0.19,0,0,1,0,.17c-0.17.05-.37,0.14-0.57,0.19s-0.5,0-.78.07C-1567.69-238.53-1568.54-238.63-1569.25-238.54Z" transform="translate(1632.97 290.63)"/><path class="cls-7" d="M-1568.9-231.05a1.34,1.34,0,0,1-.83-0.45v-0.31l-0.09-1.21a9.81,9.81,0,0,0-.64-2.69c-0.45-.75-0.88-1.51-1.35-2.25s-1-1.5-1.56-2.25-1.12-1.43-1.65-2.17a7,7,0,0,1-.61-0.8h0v0a8.16,8.16,0,0,0-.76,1c-0.51.7-1.07,1.37-1.58,2.08s-0.92,1.21-1.32,1.84-0.65,1.09-1,1.65a9.29,9.29,0,0,0-.71,1.25,6.26,6.26,0,0,0-.17.73,11.9,11.9,0,0,0-.38,3.07,1.39,1.39,0,0,1-.83.45c0-.45,0-0.9,0-1.39v-0.47c0.12-.55.06-1.11,0.19-1.63a18.46,18.46,0,0,1,.83-2.81,10.07,10.07,0,0,1,.78-1.28c0.3-.48.57-1,0.9-1.42s0.76-1,1.11-1.47,0.8-1,1.18-1.51c0.11-.14.27-0.26,0.38-0.4a2.63,2.63,0,0,1,.69-0.73l0.73,0.92h0v0a6.75,6.75,0,0,1,.8-0.9c0.33,0.52.86,0.93,1.23,1.42,0.93,1.24,1.87,2.42,2.72,3.76a13,13,0,0,1,1,1.58,19.06,19.06,0,0,1,.85,2.91l0.17,1.39v0.54A7.66,7.66,0,0,1-1568.9-231.05Z" transform="translate(1632.97 290.63)"/></svg>