<svg id="Layer_1" data-name="Layer 1" xmlns="http://www.w3.org/2000/svg" viewBox="0 0 266.91 306.31"><defs><style>.cls-1{fill:#0a1028;}.cls-13,.cls-14,.cls-2{fill:#fff;}.cls-3{fill:#e7d467;}.cls-4{fill:#baa854;}.cls-5{fill:#fbdb2c;}.cls-6{fill:#d5b025;}.cls-7{fill:#496cb1;}.cls-8{fill:#2e3e4f;}.cls-9{fill:#57b07e;}.cls-10{fill:#2c834f;}.cls-11{fill:#ef3f47;}.cls-12{fill:#92231b;}.cls-13{font-size:11.05px;}.cls-13,.cls-14{font-family:Segoe UI;font-weight:700;}.cls-14{font-size:30.88px;}</style></defs><title>Logo</title><polygon class="cls-1" points="1.63 75.16 135.09 0 266.9 77.99 265.27 231.15 131.82 306.31 0 228.32 1.63 75.16"/><polygon class="cls-2" points="15.51 83.66 134.42 16.69 251.87 86.19 250.41 222.65 131.51 289.62 14.06 220.13 15.51 83.66"/><polygon class="cls-3" points="245.69 89.67 244.31 219.03 131.58 282.52 20.23 216.65 21.61 87.28 134.34 23.79 245.69 89.67"/><polygon class="cls-4" points="134.34 23.79 131.58 282.52 244.31 219.03 245.69 89.67 134.34 23.79"/><polygon class="cls-2" points="33.29 94.18 134.2 37.35 233.87 96.32 232.63 212.13 131.73 268.96 32.06 209.99 33.29 94.18"/><polygon class="cls-5" points="227.91 99.68 226.75 208.64 131.8 262.12 38.02 206.63 39.18 97.67 134.12 44.19 227.91 99.68"/><polygon class="cls-6" points="134.12 44.19 131.8 262.12 226.75 208.64 227.91 99.68 134.12 44.19"/><polygon class="cls-2" points="133.06 55.1 110.15 94.54 133.06 133.97 156.55 94.54 133.06 55.1"/><polygon class="cls-7" points="133.06 63.42 118.22 94.78 133.06 126.15 148.48 94.78 133.06 63.42"/><polygon class="cls-8" points="118.22 94.62 148.48 94.62 133.06 125.98 118.22 94.62"/><polygon class="cls-2" points="66.89 102.82 85.85 144.3 131.27 148.38 112.65 106.42 66.89 102.82"/><polygon class="cls-9" points="73.68 107.63 90.71 137.85 124.88 143.86 108.19 113.16 73.68 107.63"/><polygon class="cls-10" points="90.36 137.6 107.83 112.91 124.53 143.61 90.36 137.6"/><polygon class="cls-2" points="199.14 102.82 180.18 144.3 134.75 148.38 153.37 106.42 199.14 102.82"/><polygon class="cls-11" points="192.34 107.63 175.31 137.85 141.14 143.86 157.83 113.16 192.34 107.63"/><polygon class="cls-12" points="175.67 137.6 158.19 112.91 141.5 143.61 175.67 137.6"/><rect class="cls-2" x="35.54" y="155.62" width="193" height="56"/><polygon class="cls-1" points="227.27 160.88 38.54 160.67 38.39 181.36 38.23 204.88 227.02 206.05 227.27 160.88"/><text class="cls-13" transform="translate(112.08 173.84)">TRI-CI<tspan x="30.71" y="0">T</tspan><tspan x="36.99" y="0">Y</tspan></text><text class="cls-14" transform="translate(92.88 199.2)">OPEN</text></svg>