<svg id="Layer_1" data-name="Layer 1" xmlns="http://www.w3.org/2000/svg" viewBox="0 0 114.05 130.88"><defs><style>.cls-1,.cls-6{fill:#0a1028;}.cls-2,.cls-5{fill:#fff;}.cls-3{fill:#fbdb2c;}.cls-4{fill:#d5b025;}.cls-5{font-size:7.69px;font-family:Segoe UI;font-weight:700;}.cls-6{stroke:#fff;stroke-miterlimit:10;stroke-width:2.03px;}</style></defs><title>lol</title><polygon class="cls-1" points="0.7 32.12 57.72 0 114.05 33.33 113.35 98.77 56.33 130.88 0 97.56 0.7 32.12"/><polygon class="cls-2" points="6.63 35.75 57.44 7.13 107.62 36.83 107 95.13 56.19 123.75 6.01 94.06 6.63 35.75"/><polygon class="cls-3" points="104.98 38.31 104.39 93.59 56.22 120.72 8.65 92.57 9.24 37.29 57.4 10.16 104.98 38.31"/><polygon class="cls-4" points="57.4 10.16 56.22 120.72 104.39 93.59 104.98 38.31 57.4 10.16"/><polygon class="cls-2" points="14.22 40.24 57.34 15.96 99.93 41.16 99.4 90.64 56.28 114.92 13.7 89.72 14.22 40.24"/><polygon class="cls-3" points="97.38 42.59 96.89 89.15 56.32 112 16.24 88.29 16.74 41.73 57.31 18.88 97.38 42.59"/><polygon class="cls-4" points="57.31 18.88 56.32 112 96.89 89.15 97.38 42.59 57.31 18.88"/><rect class="cls-2" x="15.52" y="69.91" width="82" height="21"/><polygon class="cls-1" points="97.12 72.3 16.48 72.29 16.41 79.5 16.33 87.69 97 88.04 97.12 72.3"/><text class="cls-5" transform="translate(23.33 81.65)">League <tspan x="27.18" y="0">o</tspan><tspan x="31.65" y="0">f Legends</tspan></text><rect class="cls-6" x="40.05" y="33.55" width="32.95" height="32.95"/><path class="cls-2" d="M-1256.12-237s3.12,1.14,3.12,3.67v14.6a2.63,2.63,0,0,1-1.23,2c-1.23.87-2.75,1.81-2.75,1.81l16.28,0.14a1.37,1.37,0,0,0,1.52-1.09c0.3-1.53,2.43-6,2.14-6.66s-5.33,5.57-10.75,2.82c-0.07-5.43.07-14.11,0.07-14.11s0.09-1.21,2.49-3.26Z" transform="translate(1303.52 275.91)"/></svg>