<svg id="Layer_1" data-name="Layer 1" xmlns="http://www.w3.org/2000/svg" xmlns:xlink="http://www.w3.org/1999/xlink" viewBox="0 0 434.75 480.69"><defs><style>.cls-1,.cls-7{fill:none;}.cls-2{fill:#0a1028;}.cls-3{clip-path:url(#clip-path);}.cls-4{fill:#fedc00;}.cls-5{clip-path:url(#clip-path-2);}.cls-6{fill:#d8b10b;}.cls-7{stroke:#fedc00;stroke-miterlimit:10;stroke-width:7.12px;}.cls-8{clip-path:url(#clip-path-3);}.cls-9{clip-path:url(#clip-path-4);}.cls-10{clip-path:url(#clip-path-5);}.cls-11{clip-path:url(#clip-path-6);}</style><clipPath id="clip-path" transform="translate(-536.25 -543.87)"><polygon class="cls-1" points="639.32 560 689.34 560 764.52 780 714.5 780 639.32 560"/></clipPath><clipPath id="clip-path-2" transform="translate(-536.25 -543.87)"><polygon class="cls-1" points="656.24 845.06 737.69 799.19 818.14 846.79 817.14 940.26 735.69 986.13 655.25 938.53 656.24 845.06"/></clipPath><clipPath id="clip-path-3" transform="translate(-536.25 -543.87)"><polygon class="cls-1" points="775.03 511 825.05 511 886.52 689 836.5 689 775.03 511"/></clipPath><clipPath id="clip-path-4" transform="translate(-536.25 -543.87)"><polygon class="cls-1" points="778.24 754.06 859.69 708.19 940.14 755.79 939.14 849.26 857.69 895.13 777.25 847.53 778.24 754.06"/></clipPath><clipPath id="clip-path-5" transform="translate(-536.25 -543.87)"><polygon class="cls-1" points="552.3 546 602.32 546 645.52 672 595.5 672 552.3 546"/></clipPath><clipPath id="clip-path-6" transform="translate(-536.25 -543.87)"><polygon class="cls-1" points="537.24 737.06 618.69 691.19 699.14 738.79 698.14 832.26 616.69 878.13 536.25 830.53 537.24 737.06"/></clipPath></defs><title>medals</title><polygon class="cls-2" points="97.12 1.11 148.01 2.07 228.27 235.13 178.25 235.13 97.12 1.11"/><g class="cls-3"><polygon points="174.02 235.62 203.67 152.76 216.97 177.84 190.74 232.58 174.02 235.62"/></g><polygon class="cls-4" points="120 301.19 201.44 255.32 281.89 302.92 280.89 396.39 199.45 442.26 119 394.66 120 301.19"/><g class="cls-5"><polygon class="cls-6" points="248.14 272.49 148.93 423.76 207.47 459.5 276.64 430.23 312.75 350.03 303.63 283.13 248.14 272.49"/></g><rect class="cls-7" x="155.74" y="232.45" width="90.91" height="22.81"/><polygon class="cls-2" points="311.08 1.13 260.87 1.13 180.31 236.13 230.34 236.13 311.08 1.13"/><polygon class="cls-6" points="176.35 228.85 173.87 235.98 180.31 236.09 182.8 228.79 176.35 228.85"/><polygon points="129.06 92.83 155.06 23.51 150.72 10.32 122.56 74.71 129.06 92.83"/><polygon class="cls-2" points="250.51 2.59 299.18 0 350.27 144.13 300.25 144.13 250.51 2.59"/><g class="cls-8"><polygon points="296.02 144.62 325.67 61.76 338.97 86.84 312.74 141.58 296.02 144.62"/></g><polygon class="cls-4" points="242 210.19 323.44 164.32 403.89 211.92 402.89 305.39 321.45 351.26 241 303.66 242 210.19"/><g class="cls-9"><polygon class="cls-6" points="370.14 181.49 270.93 332.76 329.47 368.5 398.64 339.23 434.75 259.03 425.63 192.13 370.14 181.49"/></g><rect class="cls-7" x="277.74" y="141.45" width="90.91" height="22.81"/><polygon class="cls-2" points="401.68 2.13 351.46 2.13 302.31 145.13 352.33 145.13 401.68 2.13"/><polygon class="cls-6" points="298.35 137.85 295.87 144.98 302.31 145.09 304.8 137.79 298.35 137.85"/><polygon class="cls-2" points="16.05 2.13 66.07 2.13 109.27 127.13 59.25 127.13 16.05 2.13"/><g class="cls-10"><polygon points="55.02 127.62 84.67 44.76 97.97 69.84 71.74 124.58 55.02 127.62"/></g><polygon class="cls-4" points="1 193.19 82.44 147.32 162.89 194.92 161.89 288.39 80.45 334.26 0 286.66 1 193.19"/><g class="cls-11"><polygon class="cls-6" points="129.14 164.49 29.93 315.76 88.47 351.5 157.64 322.23 193.75 242.03 184.63 175.13 129.14 164.49"/></g><rect class="cls-7" x="36.74" y="124.45" width="90.91" height="22.81"/><polygon class="cls-2" points="154.74 2.07 105.04 2.59 61.31 128.13 111.33 128.13 154.74 2.07"/><polygon class="cls-6" points="57.35 120.86 54.87 127.98 61.31 128.09 63.8 120.79 57.35 120.86"/><polygon points="280.99 89.48 306.07 16.59 309.92 28.36 284.87 100.26 280.99 89.48"/><image width="1920" height="1920" transform="translate(68.53 216.12) scale(0.14)" xlink:href="../../tri city open/lol.png"/></svg>