<?xml version="1.0" encoding="utf-8"?>
<!-- Generator: Adobe Illustrator 20.1.0, SVG Export Plug-In . SVG Version: 6.00 Build 0)  -->
<svg version="1.1" id="Layer_1" xmlns="http://www.w3.org/2000/svg" xmlns:xlink="http://www.w3.org/1999/xlink" x="0px" y="0px"
	 viewBox="0 0 1150 336.8" style="enable-background:new 0 0 1150 336.8;" xml:space="preserve">
<style type="text/css">
	.st0{fill:#0A1028;}
	.st1{fill:#C1C1C1;}
	.st2{fill:#FFFFFF;}
	.st3{font-family:'SegoeUI-Bold';}
	.st4{font-size:24px;}
	.st5{font-family:'Lato-Bold';}
	.st6{font-size:19.29px;}
	.st7{font-size:46.34px;}
	.st8{enable-background:new    ;}
	.st9{font-size:26.3228px;}
</style>
<title>timelineNew</title>
<rect x="218.7" y="165" class="st0" width="99.7" height="3"/>
<rect x="534.7" y="165" class="st0" width="100.4" height="3"/>
<path class="st1" d="M1039,52l-100,58v115.9l100,58l100-58V110L1039,52z M1126,218.4l-87,50.5l-87-50.5V117.5l87-50.5l87,50.5V218.4
	z"/>
<polygon class="st1" points="1039,52.3 1039,67.3 1126,117.8 1126,218.7 1039,269.2 1039,284.2 1139,226.2 1139,110.3 "/>
<polygon class="st1" points="931,156 931,105.9 1039,43.7 1147,105.9 1147,156 1150,156 1150,103.6 1039,39.2 928,103.6 928,156 "/>
<polygon class="st1" points="1147,156 1147,230.5 1039,292.8 931,230.5 931,176 928,176 928,232.3 1039,296.7 1150,232.3 1150,156 
	"/>
<rect x="851.7" y="165" class="st1" width="79.4" height="3"/>
<polygon class="st1" points="1038,62.1 1129.9,115.2 1129.9,221.3 1038,274.4 946.1,221.3 946.1,115.2 "/>
<g>
	<path class="st0" d="M111,52L11,110v115.9l100,58l100-58V110L111,52z M198,218.4l-87,50.5l-87-50.5V117.5L111,67l87,50.5V218.4z"/>
	<polygon class="st0" points="111,52.3 111,67.3 198,117.8 198,218.7 111,269.2 111,284.2 211,226.2 211,110.3 	"/>
	<polygon class="st0" points="3,176 3,105.9 111,43.7 219,105.9 219,156 222,156 222,103.6 111,39.2 0,103.6 0,176 	"/>
	<polygon class="st0" points="219,176 219,230.5 111,292.8 3,230.5 3,176 0,176 0,232.3 111,296.7 222,232.3 222,176 	"/>
	<text transform="matrix(1 0 0 1 76.13 172.46)" class="st2 st3 st4">S</text>
	<text transform="matrix(1 0 0 1 89.2 172.46)" class="st2 st3 st4">E</text>
	<text transform="matrix(1 0 0 1 101.74 172.46)" class="st2 st3 st4">TUP</text>
	<polygon class="st0" points="110.8,67 198.2,117.5 198.2,218.4 110.8,268.9 23.4,218.4 23.4,117.5 	"/>
	<text transform="matrix(1 0 0 1 92.34 156.54)" class="st2 st5 st6">THE</text>
	<text transform="matrix(1 0 0 1 29.39 179.7)" class="st2 st5 st6">ANNOUNCEMENT</text>
</g>
<g>
	<polygon class="st2" points="740.8,6 884.1,87.5 884.7,254.3 741.8,336.9 596.8,254.5 597.4,87.5 	"/>
	<path class="st0" d="M739.8,19.8l-131,75.8v151.7l131,75.9l131-75.9V95.6L739.8,19.8z M854.8,237.5l-114,66l-114-66V105.4l114-66
		l114,66V237.5z"/>
	<polygon class="st0" points="739.8,20.1 739.8,39.7 854.8,105.8 854.8,237.9 739.8,303.9 739.8,323.5 870.8,247.7 870.8,96 	"/>
	<polygon class="st0" points="598.8,156.1 598.8,90.3 739.8,8.9 880.8,90.3 880.8,156.1 885.8,156.1 885.8,87.3 740.8,3 595.8,87.3 
		595.8,156.1 	"/>
	<polygon class="st0" points="880.8,182.1 880.8,253.3 739.8,334.8 598.8,253.3 598.8,182.1 595.8,182.1 595.8,255.7 740.8,339.9 
		885.8,255.7 885.8,182.1 	"/>
	<polygon class="st0" points="740.3,37.2 856.5,104.3 856.5,238.6 740.3,305.7 624,238.6 624,104.3 	"/>
	<polygon class="st0" points="740.9,46 740.9,297.1 849.1,234.4 849.1,108.8 	"/>
	<text transform="matrix(1 0 0 1 652.7051 162.05)" class="st2 st5 st7">SEASON</text>
	<text transform="matrix(1 0 0 1 660.536 209.3105)" class="st2 st5 st7">BEGINS</text>
</g>
<g>
	<path class="st0" d="M426.9,49l-100,58v115.9l100,58l100-58V107L426.9,49z M513.9,215.4l-87,50.5l-87-50.5V114.5l87-50.5l87,50.5
		V215.4z"/>
	<polygon class="st0" points="426.9,49.3 426.9,64.3 513.9,114.8 513.9,215.7 426.9,266.2 426.9,281.2 526.9,223.2 526.9,107.3 	"/>
	<polygon class="st0" points="318.9,153.5 318.9,103 426.9,40.7 534.9,103 534.9,153 537.9,153 537.9,100.6 426.9,36.2 315.9,100.6 
		315.9,153.5 	"/>
	<polygon class="st0" points="534.9,173 534.9,227.5 426.9,289.8 318.9,227.5 318.9,173 315.9,173 315.9,229.3 426.9,293.7 
		537.9,229.3 537.9,173 	"/>
	<text transform="matrix(1 0 0 1 392.03 169.46)" class="st2 st3 st4">S</text>
	<text transform="matrix(1 0 0 1 405.1 169.46)" class="st2 st3 st4">E</text>
	<text transform="matrix(1 0 0 1 417.64 169.46)" class="st2 st3 st4">TUP</text>
	<polygon class="st0" points="426.7,64 514.1,114.5 514.1,215.4 426.7,265.9 339.3,215.4 339.3,114.5 	"/>
	<text transform="matrix(1 0 0 1 395.24 158.54)" class="st8"><tspan x="0" y="0" class="st2 st5 st6">TEAMS</tspan><tspan x="64.5" y="0" class="st2 st3 st6"> </tspan></text>
	<text transform="matrix(1 0 0 1 377.29 181.7)" class="st2 st5 st6">ASSEMBLE</text>
</g>
<text transform="matrix(1 0 0 1 978.291 175.8555)" class="st2 st5 st9">PLAYOFFS</text>
</svg>
