<svg id="Layer_1" data-name="Layer 1" xmlns="http://www.w3.org/2000/svg" viewBox="0 0 1150 336.84"><defs><style>.cls-1,.cls-4,.cls-5,.cls-6,.cls-7,.cls-8{fill:#fff;}.cls-2{fill:#0a1028;}.cls-3{fill:#c1c1c1;}.cls-4,.cls-5,.cls-6,.cls-7,.cls-8{isolation:isolate;font-family:Segoe UI;}.cls-4{font-size:24px;}.cls-4,.cls-5,.cls-7,.cls-8{font-weight:700;}.cls-5{font-size:19.29px;}.cls-6{font-size:46.34px;}.cls-7{font-size:23.1px;}.cls-8{font-size:26.95px;}</style></defs><title>timelineNew</title><polygon class="cls-1" points="426 3 569.26 84.49 569.87 251.25 427 333.84 282 251.43 282.6 84.49 426 3"/><path class="cls-2" d="M111,52L11,110V225.93l100,58,100-58V110Zm87,166.42L111,268.9,24,218.43V117.49L111,67l87,50.47V218.42Z"/><polygon class="cls-2" points="111 52.28 111 67.28 198 117.75 198 218.7 111 269.17 111 284.17 211 226.2 211 110.25 111 52.28"/><polygon class="cls-2" points="3 176.01 3 105.95 111 43.68 219 105.95 219 156.01 222 156.01 222 103.6 111 39.24 0 103.6 0 176.01 3 176.01"/><polygon class="cls-2" points="219 176.01 219 230.5 111 292.77 3 230.5 3 176.01 0 176.01 0 232.32 111 296.68 222 232.32 222 176.01 219 176.01"/><rect class="cls-2" x="218.69" y="164.96" width="79.42" height="3"/><path class="cls-3" d="M743,52L643,110V225.93l100,58,100-58V110Zm87,166.42L743,268.9l-87-50.47V117.49L743,67l87,50.47V218.42Z"/><polygon class="cls-3" points="743 52.28 743 67.28 830 117.75 830 218.7 743 269.17 743 284.17 843 226.2 843 110.25 743 52.28"/><polygon class="cls-3" points="635 156.01 635 105.95 743 43.68 851 105.95 851 156.01 854 156.01 854 103.6 743 39.24 632 103.6 632 156.01 635 156.01"/><polygon class="cls-3" points="851 176.01 851 230.5 743 292.77 635 230.5 635 176.01 632 176.01 632 232.32 743 296.68 854 232.32 854 176.01 851 176.01"/><rect class="cls-3" x="555.69" y="164.96" width="79.42" height="3"/><path class="cls-3" d="M1039,52L939,110V225.93l100,58,100-58V110Zm87,166.42-87,50.47-87-50.47V117.49L1039,67l87,50.47V218.42Z"/><polygon class="cls-3" points="1039 52.28 1039 67.28 1126 117.75 1126 218.7 1039 269.17 1039 284.17 1139 226.2 1139 110.25 1039 52.28"/><polygon class="cls-3" points="931 156.01 931 105.95 1039 43.68 1147 105.95 1147 156.01 1150 156.01 1150 103.6 1039 39.24 928 103.6 928 156.01 931 156.01"/><polygon class="cls-3" points="1147 156.01 1147 230.5 1039 292.77 931 230.5 931 176.01 928 176.01 928 232.32 1039 296.68 1150 232.32 1150 156.01 1147 156.01"/><rect class="cls-3" x="851.69" y="164.96" width="79.42" height="3"/><text class="cls-4" transform="translate(76.13 172.46)">S</text><text class="cls-4" transform="translate(89.2 172.46)">E</text><text class="cls-4" transform="translate(101.74 172.46)">TUP</text><polygon class="cls-3" points="1038 62.08 1129.92 115.15 1129.92 221.3 1038 274.37 946.08 221.3 946.08 115.15 1038 62.08"/><polygon class="cls-3" points="743 64.08 833.2 116.15 833.2 220.3 743 272.37 652.8 220.3 652.8 116.15 743 64.08"/><polygon class="cls-2" points="110.81 67 198.24 117.48 198.24 218.44 110.81 268.92 23.37 218.44 23.37 117.48 110.81 67"/><text class="cls-5" transform="translate(92.34 156.54)">THE</text><text class="cls-5" transform="translate(29.39 179.7)">ANNOUNCEMENT</text><path class="cls-2" d="M425,16.72L294,92.57v151.7l131,75.85,131-75.85V92.57ZM540,234.46l-114,66-114-66V102.38l114-66,114,66V234.46Z"/><polygon class="cls-2" points="425 17.07 425 36.69 540 102.73 540 234.81 425 300.85 425 320.47 556 244.62 556 92.92 425 17.07"/><polygon class="cls-2" points="284 153.01 284 87.29 425 5.81 566 87.29 566 153.01 571 153.01 571 84.21 426 0 281 84.21 281 153.01 284 153.01"/><polygon class="cls-2" points="566 179.01 566 250.25 425 331.73 284 250.25 284 179.01 281 179.01 281 252.63 426 336.84 571 252.63 571 179.01 566 179.01"/><polygon class="cls-2" points="425.41 34.18 541.67 101.3 541.67 235.54 425.41 302.66 309.16 235.54 309.16 101.3 425.41 34.18"/><polygon class="cls-2" points="426.07 42.98 426.07 294.03 534.28 231.36 534.28 105.74 426.07 42.98"/><text class="cls-6" transform="translate(356.86 156.01)">TEAMS</text><text class="cls-6" transform="translate(321.78 203.27)">ASSEMBLE</text><text class="cls-7" transform="translate(698.82 162.02)">S</text><text class="cls-7" transform="translate(711.39 162.02)">E</text><text class="cls-7" transform="translate(723.55 162.02)">ASON</text><text class="cls-7" transform="translate(703.29 189.74)">BEGINS</text><text class="cls-8" transform="translate(976.43 174.34)">P</text><text class="cls-8" transform="translate(992.99 174.34)">L</text><text class="cls-8" transform="translate(1007.35 174.34)">A</text><text class="cls-8" transform="translate(1024.29 174.34)">Y</text><text class="cls-8" transform="translate(1039.96 174.34)">OF</text><text class="cls-8" transform="translate(1074.42 174.34)">F</text><text class="cls-8" transform="translate(1088.18 174.34)">S</text></svg>