<svg xmlns="http://www.w3.org/2000/svg" viewBox="0 0 369.25 369.25"><defs><style>.cls-1{opacity:0;}</style></defs><title>timelineRing_2</title><g id="Layer_2" data-name="Layer 2"><g id="Layer_2-2" data-name="Layer 2"><polygon points="31.27 99.1 31.27 266.04 13.8 181.07 13.8 181.07 31.27 99.1"/><polygon points="336.98 266.04 336.98 99.1 354.44 184.07 354.44 184.07 336.98 266.04"/><polygon points="35.91 273.48 180.48 356.95 98.17 329.58 98.17 329.58 35.91 273.48"/><polygon points="333.34 92.19 188.76 8.72 271.08 36.09 271.08 36.09 333.34 92.19"/><polygon points="188.76 356.51 333.34 273.04 268.48 330.65 268.48 330.65 188.76 356.51"/><polygon points="180.48 8.29 35.91 91.76 100.77 34.15 100.77 34.15 180.48 8.29"/><rect class="cls-1" width="369.25" height="369.25"/></g></g></svg>