<svg xmlns="http://www.w3.org/2000/svg" viewBox="0 0 1150 336.84"><defs><style>.cls-1,.cls-11,.cls-14,.cls-15,.cls-5{fill:#fff;}.cls-2{fill:#0a1028;}.cls-3{fill:#c1c1c1;}.cls-4{fill:#a8a8a8;}.cls-5{font-size:24px;}.cls-11,.cls-15,.cls-5{font-family:SegoeUI-Semibold, Segoe UI;font-weight:700;}.cls-6{letter-spacing:0em;}.cls-7{fill:#d5b025;}.cls-7,.cls-8{opacity:0.63;}.cls-8{fill:#2c834f;}.cls-9{fill:#496cb1;}.cls-10{fill:#2e3e4f;}.cls-11{font-size:14px;}.cls-12{fill:#ef3f47;}.cls-13{fill:#92231b;}.cls-14{font-size:36px;font-family:SegoeUI, Segoe UI;}.cls-15{font-size:18px;}.cls-16{letter-spacing:0.01em;}</style></defs><title>timelineNew_3</title><g id="Layer_2" data-name="Layer 2"><g id="Layer_2-2" data-name="Layer 2"><polygon class="cls-1" points="426 3 569.26 84.49 569.87 251.25 427 333.84 282 251.43 282.6 84.49 426 3"/><path class="cls-2" d="M111,52,11,110V225.93l100,58,100-58V110Zm87,166.42L111,268.9,24,218.43V117.49L111,67l87,50.47Z"/><polygon class="cls-2" points="111 52.28 111 67.28 198 117.75 198 218.7 111 269.17 111 284.17 211 226.2 211 110.25 111 52.28"/><polygon class="cls-2" points="3 176.01 3 105.95 111 43.68 219 105.95 219 156.01 222 156.01 222 103.6 111 39.24 0 103.6 0 176.01 3 176.01"/><polygon class="cls-2" points="219 176.01 219 230.5 111 292.77 3 230.5 3 176.01 0 176.01 0 232.32 111 296.68 222 232.32 222 176.01 219 176.01"/><rect class="cls-2" x="256.9" y="126.75" width="3" height="79.42" transform="translate(91.94 424.86) rotate(-90)"/><path class="cls-3" d="M743,52,643,110V225.93l100,58,100-58V110Zm87,166.42L743,268.9l-87-50.47V117.49L743,67l87,50.47Z"/><polygon class="cls-4" points="743 52.28 743 67.28 830 117.75 830 218.7 743 269.17 743 284.17 843 226.2 843 110.25 743 52.28"/><polygon class="cls-3" points="635 156.01 635 105.95 743 43.68 851 105.95 851 156.01 854 156.01 854 103.6 743 39.24 632 103.6 632 156.01 635 156.01"/><polygon class="cls-3" points="851 176.01 851 230.5 743 292.77 635 230.5 635 176.01 632 176.01 632 232.32 743 296.68 854 232.32 854 176.01 851 176.01"/><rect class="cls-3" x="593.9" y="126.75" width="3" height="79.42" transform="translate(428.94 761.86) rotate(-90)"/><path class="cls-3" d="M1039,52,939,110V225.93l100,58,100-58V110Zm87,166.42-87,50.47-87-50.47V117.49L1039,67l87,50.47Z"/><polygon class="cls-4" points="1039 52.28 1039 67.28 1126 117.75 1126 218.7 1039 269.17 1039 284.17 1139 226.2 1139 110.25 1039 52.28"/><polygon class="cls-3" points="931 156.01 931 105.95 1039 43.68 1147 105.95 1147 156.01 1150 156.01 1150 103.6 1039 39.24 928 103.6 928 156.01 931 156.01"/><polygon class="cls-3" points="1147 156.01 1147 230.5 1039 292.77 931 230.5 931 176.01 928 176.01 928 232.32 1039 296.68 1150 232.32 1150 156.01 1147 156.01"/><rect class="cls-3" x="889.9" y="126.75" width="3" height="79.42" transform="translate(724.94 1057.86) rotate(-90)"/><text class="cls-5" transform="translate(76.13 172.46)">S<tspan class="cls-6" x="13.07" y="0">E</tspan><tspan x="25.61" y="0">TUP</tspan></text><polygon class="cls-7" points="1038 81.98 1112.69 125.1 1112.69 211.35 1038 254.47 963.31 211.35 963.31 125.1 1038 81.98"/><polygon class="cls-8" points="743 81.98 817.69 125.1 817.69 211.35 743 254.47 668.31 211.35 668.31 125.1 743 81.98"/><polygon class="cls-9" points="108.81 81.72 183.49 124.84 183.49 211.08 108.81 254.2 34.12 211.08 34.12 124.84 108.81 81.72"/><polygon class="cls-10" points="109 82.02 109 254.01 183 211.08 183 125.02 109 82.02"/><text class="cls-11" transform="translate(97.77 158.61)">THE<tspan x="-45.68" y="16.8">ANNOUNCEMENT</tspan></text><path class="cls-2" d="M425,16.72,294,92.57v151.7l131,75.85,131-75.85V92.57ZM540,234.46l-114,66-114-66V102.38l114-66,114,66Z"/><polygon class="cls-2" points="425 17.07 425 36.69 540 102.73 540 234.81 425 300.85 425 320.47 556 244.62 556 92.92 425 17.07"/><polygon class="cls-2" points="284 153.01 284 87.29 425 5.81 566 87.29 566 153.01 571 153.01 571 84.21 426 0 281 84.21 281 153.01 284 153.01"/><polygon class="cls-2" points="566 179.01 566 250.25 425 331.73 284 250.25 284 179.01 281 179.01 281 252.63 426 336.84 571 252.63 571 179.01 566 179.01"/><polygon class="cls-12" points="425.41 55.58 523.14 112 523.14 224.84 425.41 281.26 327.69 224.84 327.69 112 425.41 55.58"/><polygon class="cls-13" points="426 55.97 426 281.02 523 224.84 523 112.23 426 55.97"/><text class="cls-14" transform="translate(367.79 151.57)">TEAMS<tspan x="-28.03" y="43.2">ASSEMBLE</tspan></text><text class="cls-15" transform="translate(708.71 164.01)">S<tspan class="cls-16" x="9.8" y="0">E</tspan><tspan x="19.28" y="0">ASON</tspan><tspan x="3.49" y="21.6">BEGINS</tspan></text><text class="cls-15" transform="translate(1020.28 161.01)">THE <tspan x="-13.69" y="21.6">FUTURE</tspan></text><text></text></g></g></svg>