<svg id="Layer_1" data-name="Layer 1" xmlns="http://www.w3.org/2000/svg" viewBox="0 0 873.8 350.33"><defs><style>.cls-1{font-size:18.36px;fill:#e7d467;font-weight:700;}.cls-1,.cls-6{font-family:Segoe UI;}.cls-2{letter-spacing:-1px;}.cls-3{fill:#4da546;}.cls-4{fill:#282828;}.cls-5,.cls-6{fill:#fff;}.cls-6{font-size:10.21px;}.cls-7{white-space:pre;}</style></defs><title>timeline</title><text x="-40.15" y="-1154.34"/><text class="cls-1" transform="translate(0 15.6)">THE ANNOUNCEMENT</text><text class="cls-1" transform="translate(253.46 15.6)">REGISTR<tspan class="cls-2" x="70.63" y="0">A</tspan><tspan x="81.65" y="0">TION</tspan></text><text class="cls-1" transform="translate(470.7 15.6)">THE FINAL <tspan x="93.17" y="0">L</tspan><tspan x="102.62" y="0">AN</tspan></text><text class="cls-1" transform="translate(704.07 15.6)">THE FUTURE</text><text class="cls-1" transform="translate(344.07 342.5)">THE S<tspan x="48.17" y="0">E</tspan><tspan x="57.84" y="0">ASON BEGINS</tspan></text><text class="cls-1" transform="translate(593.42 342.5)">CHAMPIONS</text><text class="cls-1" transform="translate(126.43 341.82)">T<tspan x="10.13" y="0">E</tspan><tspan x="19.8" y="0">AMS ASSEMBLE</tspan></text><path class="cls-3" d="M141.69,1189.52l-53.17,29.95-0.65,61,52.52,31.07,53.17-29.95,0.65-61Zm44.84,87.93-46.05,25.94L95,1276.48l0.56-52.85,46.05-25.94,45.49,26.91Z" transform="translate(-40.15 -1154.34)"/><path class="cls-4" d="M251.31,1338.09L198.13,1368l-0.65,61L250,1460.13l53.17-29.95,0.65-61ZM296.14,1426L250.09,1452,204.6,1425l0.56-52.85,46.05-25.94,45.49,26.91Z" transform="translate(-40.15 -1154.34)"/><polygon class="cls-3" points="100.31 168.21 104.03 174.66 96.58 174.66 100.31 168.21"/><rect class="cls-5" x="113.85" y="168.66" width="87" height="5"/><rect class="cls-3" x="113.85" y="168.66" width="48" height="5"/><polygon class="cls-5" points="211.54 174.11 207.82 167.66 215.26 167.66 211.54 174.11"/><path class="cls-4" d="M413.16,1281l-0.65-61L359.34,1190l-52.52,31.07,0.65,61L360.64,1312Zm-7.12-4-45.49,26.91-46.05-25.94-0.56-52.85,45.49-26.91,46.05,25.94Z" transform="translate(-40.15 -1154.34)"/><rect class="cls-5" x="222.85" y="168.66" width="87" height="5"/><polygon class="cls-5" points="320.88 168.21 317.15 174.66 324.6 174.66 320.88 168.21"/><path class="cls-4" d="M470.08,1338.09L416.9,1368l-0.65,61,52.52,31.07,53.17-29.95,0.65-61ZM514.91,1426L468.86,1452,423.37,1425l0.56-52.85L470,1346.26l45.49,26.91Z" transform="translate(-40.15 -1154.34)"/><rect class="cls-5" x="331.85" y="168.66" width="87" height="5"/><polygon class="cls-5" points="430.31 174.11 426.59 167.66 434.04 167.66 430.31 174.11"/><path class="cls-4" d="M688.3,1338.09L635.12,1368l-0.65,61L687,1460.13l53.17-29.95,0.65-61ZM733.13,1426L687.08,1452,641.59,1425l0.56-52.85,46.05-25.94,45.49,26.91Z" transform="translate(-40.15 -1154.34)"/><rect class="cls-5" x="550.85" y="168.66" width="87" height="5"/><polygon class="cls-5" points="648.53 174.11 644.81 167.66 652.25 167.66 648.53 174.11"/><path class="cls-4" d="M631.93,1281l-0.65-61L578.11,1190l-52.52,31.07,0.65,61L579.41,1312Zm-7.12-4-45.49,26.91-46.05-25.94-0.56-52.85,45.49-26.91,46.05,25.94Z" transform="translate(-40.15 -1154.34)"/><rect class="cls-5" x="441.85" y="168.66" width="87" height="5"/><polygon class="cls-5" points="539.65 168.21 535.92 174.66 543.37 174.66 539.65 168.21"/><path class="cls-4" d="M850.53,1281l-0.65-61L796.71,1190l-52.52,31.07,0.65,61L798,1312Zm-7.12-4-45.49,26.91-46.05-25.94-0.56-52.85,45.49-26.91,46.05,25.94Z" transform="translate(-40.15 -1154.34)"/><rect class="cls-5" x="660.85" y="168.66" width="86" height="5"/><polygon class="cls-5" points="758.25 168.21 754.52 174.66 761.97 174.66 758.25 168.21"/><rect class="cls-3" x="128.09" y="1248.96" width="35.79" height="4.6" transform="translate(-844.64 -729.87) rotate(-42.33)"/><rect class="cls-3" x="122.78" y="1254.82" width="15.01" height="4.6" transform="translate(-751.55 1045.58) rotate(-132.33)"/><text class="cls-6" transform="translate(108.46 227.96)">P<tspan x="5.06" y="0">ackages will be downloadable and distributed</tspan><tspan class="cls-7" x="-13.21" y="12.26"> to students wishing to c</tspan><tspan x="90.37" y="12.26">r</tspan><tspan x="93.54" y="12.26">eate a team at their school. </tspan><tspan class="cls-2" x="24.21" y="24.52">T</tspan><tspan x="27.82" y="24.52">eams will decide on a captain and </tspan><tspan x="34.04" y="36.77">practice for the season ahead. </tspan></text><text class="cls-6" transform="translate(239.41 84.11)"><tspan class="cls-2">T</tspan><tspan x="3.62" y="0">eam captains will </tspan><tspan x="78.72" y="0">r</tspan><tspan x="81.88" y="0">egister their schools </tspan><tspan x="-20.26" y="12.26">and </tspan><tspan x="-1.23" y="12.26">o</tspan><tspan x="4.23" y="12.26">fficially claim their spot in the </tspan><tspan class="cls-2" x="130.2" y="12.26">T</tspan><tspan x="134.08" y="12.26">ri-City open. </tspan><tspan class="cls-2" x="-8.45" y="24.52">T</tspan><tspan x="-4.84" y="24.52">eam </tspan><tspan x="16.56" y="24.52">r</tspan><tspan x="19.73" y="24.52">oste</tspan><tspan x="37.61" y="24.52">r</tspan><tspan x="41.08" y="24.52">s will be completed at this time. </tspan></text><text class="cls-6" transform="translate(457.46 82.75)">All schools will gather for a p<tspan x="122.57" y="0">r</tspan><tspan x="125.74" y="0">o</tspan><tspan x="131.2" y="0">fessional </tspan><tspan x="-0.18" y="12.26">lan tou</tspan><tspan x="29.46" y="12.26">r</tspan><tspan x="32.8" y="12.26">nament. </tspan><tspan class="cls-2" x="70.43" y="12.26">T</tspan><tspan x="74.05" y="12.26">eams will be placed in </tspan><tspan x="-15.84" y="24.52">brackets based on their </tspan><tspan x="86.65" y="24.52">r</tspan><tspan x="89.82" y="24.52">esults f</tspan><tspan x="119.11" y="24.52">r</tspan><tspan x="122.28" y="24.52">om </tspan><tspan x="139.2" y="24.52">r</tspan><tspan x="142.37" y="24.52">ound one.</tspan></text><text class="cls-6" transform="translate(647.93 82.75)">The <tspan class="cls-2" x="18.64" y="0">T</tspan><tspan x="22.52" y="0">ri-City open is the fi</tspan><tspan x="106.05" y="0">r</tspan><tspan x="109.52" y="0">st step in the development </tspan><tspan x="13.69" y="12.26">for high school espo</tspan><tspan x="100.85" y="12.26">r</tspan><tspan x="104.67" y="12.26">ts. Our goal is to expand </tspan><tspan x="37.64" y="24.52">as well as to p</tspan><tspan x="97.6" y="24.52">r</tspan><tspan x="100.77" y="24.52">ovide a p</tspan><tspan x="140.47" y="24.52">r</tspan><tspan x="143.63" y="24.52">o</tspan><tspan x="149.09" y="24.52">fessional </tspan><tspan x="29.61" y="36.77">envi</tspan><tspan x="46.96" y="36.77">r</tspan><tspan class="cls-7" x="50.13" y="36.77">onment for gaming enthusiasts.    </tspan></text><text class="cls-6" transform="translate(579.53 238.83)">One school will <tspan x="67.51" y="0">r</tspan><tspan x="70.68" y="0">emain victorious</tspan><tspan class="cls-7" x="-29.91" y="12.26"> and be c</tspan><tspan x="10.13" y="12.26">r</tspan><tspan x="13.29" y="12.26">owned the </tspan><tspan class="cls-2" x="61.54" y="12.26">T</tspan><tspan x="65.41" y="12.26">ri-City open champions. </tspan></text><text class="cls-6" transform="translate(352.95 235.45)">The fi<tspan x="23.56" y="0">r</tspan><tspan x="27.03" y="0">st </tspan><tspan x="36.82" y="0">r</tspan><tspan x="39.99" y="0">ound </tspan><tspan x="65.18" y="0">o</tspan><tspan class="cls-7" x="70.63" y="0">f  the </tspan><tspan class="cls-2" x="95.5" y="0">T</tspan><tspan x="99.38" y="0">ri-City open </tspan><tspan x="-22.88" y="12.26">will </tspan><tspan x="-6.88" y="12.26">o</tspan><tspan x="-1.43" y="12.26">fficially begin. Game highlights and other </tspan><tspan x="22.88" y="24.52">featu</tspan><tspan x="44.4" y="24.52">r</tspan><tspan x="47.57" y="24.52">es will be featu</tspan><tspan x="110.69" y="24.52">r</tspan><tspan x="113.85" y="24.52">ed. </tspan></text></svg>